<?xml version="1.0" standalone="no"?>
<!DOCTYPE svg PUBLIC "-//W3C//DTD SVG 20010904//EN"
 "http://www.w3.org/TR/2001/REC-SVG-20010904/DTD/svg10.dtd">
<svg version="1.0" xmlns="http://www.w3.org/2000/svg"
 width="85.000000pt" height="83.000000pt" viewBox="0 0 85.000000 83.000000"
 preserveAspectRatio="xMidYMid meet">

<g transform="translate(0.000000,83.000000) scale(0.100000,-0.100000)"
fill="#000000" stroke="none">
<path d="M341 815 c-25 -6 -47 -17 -49 -25 -8 -22 26 -39 58 -30 16 4 31 6 34
2 3 -3 6 0 6 7 0 8 -11 11 -32 9 -18 -2 -34 2 -36 7 -1 6 10 11 25 13 27 3 52
18 42 25 -2 2 -24 -2 -48 -8z"/>
<path d="M433 816 c2 -6 18 -13 36 -16 41 -7 36 -26 -6 -22 -46 5 -41 -15 5
-21 76 -9 84 39 9 58 -34 9 -47 9 -44 1z"/>
<path d="M215 776 c-43 -24 -59 -61 -30 -72 17 -7 95 25 95 39 0 12 -25 8 -46
-8 -22 -17 -44 -19 -44 -5 0 6 16 18 35 27 19 9 35 23 35 30 0 7 -1 13 -2 12
-2 -1 -21 -11 -43 -23z"/>
<path d="M560 786 c0 -7 16 -20 35 -29 35 -16 47 -37 22 -37 -7 0 -23 7 -35
16 -12 8 -28 14 -34 12 -17 -6 59 -50 79 -46 10 2 19 13 21 24 2 17 -8 28 -42
47 -30 17 -46 21 -46 13z"/>
<path d="M680 713 c0 -12 11 -34 25 -49 18 -20 22 -31 15 -38 -8 -8 -19 -1
-39 23 -15 19 -33 32 -39 30 -6 -2 6 -23 28 -47 34 -37 43 -41 60 -32 24 13
26 43 3 61 -9 8 -24 28 -35 44 -16 27 -18 28 -18 8z"/>
<path d="M102 682 c-38 -44 -39 -76 -2 -80 20 -2 33 6 58 38 23 27 28 40 18
40 -8 0 -24 -13 -36 -30 -21 -30 -50 -40 -50 -19 0 7 11 22 25 35 14 13 25 30
25 39 0 20 0 20 -38 -23z"/>
<path d="M217 664 c-4 -4 -7 -94 -7 -199 0 -229 -1 -225 122 -284 l80 -38 78
38 c123 60 121 56 118 288 l-3 196 -191 3 c-104 1 -193 -1 -197 -4z m63 -49
c0 -9 8 -27 17 -42 17 -26 17 -26 -6 -14 -18 10 -26 10 -39 -1 -14 -11 -15
-11 -8 7 5 11 11 30 13 43 6 25 23 30 23 7z m60 -25 c0 -22 -4 -40 -10 -40 -5
0 -10 9 -10 19 0 11 -5 21 -12 23 -9 3 -8 9 2 21 23 25 30 20 30 -23z m95 6
c0 -36 -27 -56 -52 -40 -40 25 -20 77 26 72 21 -2 26 -8 26 -32z m35 -6 c0
-22 -4 -40 -10 -40 -5 0 -10 18 -10 40 0 22 5 40 10 40 6 0 10 -18 10 -40z
m118 18 c-2 -18 -11 -24 -43 -29 -42 -6 -34 -15 20 -22 17 -3 8 -4 -20 -3 -44
1 -50 4 -53 24 -3 20 1 22 39 22 50 0 42 16 -11 23 -26 3 -22 4 18 5 50 2 53
1 50 -20z m-198 -118 c0 -18 -7 -20 -60 -20 l-60 0 0 -95 c0 -88 1 -95 20 -95
18 0 20 7 20 80 0 73 2 80 20 80 18 0 20 -7 20 -80 0 -73 2 -80 20 -80 18 0
20 7 20 80 0 73 2 80 20 80 18 0 20 -7 20 -80 0 -73 2 -80 20 -80 18 0 20 7
20 80 0 73 2 80 20 80 18 0 20 -7 20 -80 0 -73 2 -80 20 -80 19 0 20 7 20 95
l0 95 -60 0 c-53 0 -60 2 -60 20 0 18 7 20 80 20 l80 0 0 -100 c0 -140 -9
-158 -104 -208 l-76 -39 -76 39 c-95 50 -104 68 -104 208 l0 100 80 0 c73 0
80 -2 80 -20z"/>
<path d="M393 613 c-22 -8 -15 -43 7 -43 13 0 20 7 20 19 0 22 -9 30 -27 24z"/>
<path d="M32 562 c-23 -64 -25 -87 -8 -101 27 -22 50 -9 66 39 8 25 19 51 24
59 6 9 3 12 -9 9 -11 -2 -23 -18 -29 -43 -8 -25 -18 -41 -30 -43 -20 -4 -20 3
5 65 9 21 10 36 3 43 -6 6 -14 -4 -22 -28z"/>
<path d="M764 587 c-4 -11 0 -33 10 -54 16 -35 14 -57 -7 -50 -6 2 -15 21 -22
43 -6 24 -17 40 -29 42 -13 3 -16 0 -10 -10 5 -7 16 -33 24 -58 16 -47 39 -61
65 -40 20 16 19 35 -4 95 -15 40 -21 46 -27 32z"/>
<path d="M8 373 c6 -80 47 -120 82 -78 13 16 5 135 -10 135 -15 0 -20 -34 -10
-66 12 -36 7 -54 -16 -54 -10 0 -14 12 -14 41 0 41 -14 79 -29 79 -4 0 -6 -26
-3 -57z"/>
<path d="M726 369 c-8 -72 5 -96 48 -85 26 6 27 9 40 109 3 20 0 37 -5 37 -13
0 -29 -45 -29 -80 0 -16 -5 -32 -11 -36 -16 -10 -29 17 -22 46 10 39 9 63 -3
67 -7 2 -14 -19 -18 -58z"/>
<path d="M114 276 c-4 -10 7 -31 31 -57 20 -22 34 -46 32 -52 -8 -26 -34 -15
-65 28 -21 30 -39 45 -54 45 -21 0 -21 -1 8 -32 17 -18 38 -45 47 -60 20 -32
56 -37 81 -12 24 24 19 47 -19 84 -19 19 -35 40 -35 46 0 20 -20 27 -26 10z"/>
<path d="M690 282 c0 -5 -18 -28 -40 -52 -44 -48 -49 -69 -22 -93 28 -25 59
-21 79 11 9 15 30 42 47 60 l30 32 -26 0 c-20 0 -32 -10 -53 -46 -17 -28 -32
-44 -42 -42 -28 5 -25 25 12 63 36 38 43 59 25 70 -5 3 -10 2 -10 -3z"/>
<path d="M240 156 c0 -18 33 -41 73 -50 31 -7 46 -31 29 -48 -8 -8 -24 -3 -56
16 -51 30 -68 32 -86 11 -10 -13 -9 -15 9 -15 12 0 43 -11 69 -25 59 -31 77
-31 98 0 25 38 7 71 -48 86 -24 7 -53 19 -65 27 -20 13 -23 12 -23 -2z"/>
<path d="M540 154 c-14 -8 -42 -20 -62 -28 -46 -18 -60 -56 -33 -86 24 -26 51
-25 100 5 22 14 51 25 64 25 20 0 21 2 11 15 -18 21 -35 19 -86 -11 -32 -19
-48 -24 -56 -16 -17 17 -2 41 29 48 39 9 73 32 73 49 0 18 -7 18 -40 -1z"/>
</g>
</svg>
